Coordinates
version=1
nRows=41
nColumns=38
inDegrees=no

Units are S.I. units (second, meters, Newtons, ...)
If the header above contains a line with 'inDegrees', this indicates whether rotational values are in degrees (yes) or radians (no).

endheader
time	pelvis_tilt	pelvis_list	pelvis_rotation	pelvis_tx	pelvis_ty	pelvis_tz	hip_flexion_r	hip_adduction_r	hip_rotation_r	knee_angle_r	ankle_angle_r	subtalar_angle_r	mtp_angle_r	hip_flexion_l	hip_adduction_l	hip_rotation_l	knee_angle_l	ankle_angle_l	subtalar_angle_l	mtp_angle_l	lumbar_extension	lumbar_bending	lumbar_rotation	arm_flex_r	arm_add_r	arm_rot_r	elbow_flex_r	pro_sup_r	wrist_flex_r	wrist_dev_r	arm_flex_l	arm_add_l	arm_rot_l	elbow_flex_l	pro_sup_l	wrist_flex_l	wrist_dev_l
1.57	0.476198	1.3946	1.23965	0.61415	1.47862	1.01599	0.443676	0.061835	-0.120471	0.336698	-0.0242255	0	0	0.12475	-0.143803	-0.156985	1.07663	-0.329991	0	0	-0.13234	0.105421	-0.0368506	-0.0884223	-0.340304	0.577057	0.526241	0.789462	0	0	-0.00789416	-0.475254	0.390307	0.758504	1.28022	0	0
1.58	0.466974	1.39484	1.24633	0.61435	1.49194	1.01728	0.430304	0.0640263	-0.120427	0.336834	-0.01347	0	0	0.149551	-0.142039	-0.149085	1.11128	-0.283315	0	0	-0.131698	0.103534	-0.0321083	-0.0901278	-0.340851	0.576229	0.526354	0.784821	0	0	-0.00554557	-0.474558	0.405062	0.751991	1.27724	0	0
1.59	0.455529	1.39672	1.25402	0.614646	1.50524	1.0189	0.414628	0.066161	-0.11651	0.334605	-0.00530846	0	0	0.172342	-0.139486	-0.145209	1.14045	-0.238534	0	0	-0.13283	0.100428	-0.0268625	-0.0911036	-0.341418	0.57518	0.526288	0.78153	0	0	-0.00452789	-0.473119	0.414934	0.74598	1.27723	0	0
1.6	0.443616	1.40052	1.26164	0.614917	1.51852	1.02086	0.395695	0.067841	-0.110266	0.330433	0.00178367	0	0	0.192806	-0.136615	-0.144469	1.16388	-0.19293	0	0	-0.136044	0.0965623	-0.0214731	-0.0913057	-0.342343	0.574067	0.525909	0.779139	0	0	-0.00444454	-0.471037	0.42062	0.740563	1.27871	0	0
1.61	0.4308	1.40618	1.26995	0.615126	1.53179	1.02312	0.373808	0.0685557	-0.104166	0.325068	0.00762082	0	0	0.210856	-0.133733	-0.146401	1.18115	-0.150771	0	0	-0.141271	0.0919254	-0.0166155	-0.0908871	-0.343344	0.572451	0.525553	0.777022	0	0	-0.00577974	-0.46852	0.421787	0.736216	1.28082	0	0
1.62	0.418566	1.41306	1.27769	0.615249	1.54506	1.0256	0.348447	0.068534	-0.100051	0.315057	0.0112139	0	0	0.226849	-0.130927	-0.149524	1.19183	-0.114435	0	0	-0.147881	0.0870623	-0.0122691	-0.0901569	-0.344452	0.570731	0.525364	0.775142	0	0	-0.00798233	-0.465507	0.419591	0.732298	1.28259	0	0
1.63	0.408298	1.41989	1.28361	0.615309	1.55827	1.02817	0.320406	0.068421	-0.0950814	0.298998	0.0118729	0	0	0.242069	-0.128598	-0.152323	1.19622	-0.0873124	0	0	-0.154472	0.0825581	-0.00829252	-0.0892507	-0.345715	0.569576	0.525047	0.773752	0	0	-0.010575	-0.461799	0.415304	0.728035	1.28204	0	0
1.64	0.40153	1.42668	1.28631	0.615283	1.57141	1.03077	0.292764	0.068068	-0.0960542	0.284659	0.0109311	0	0	0.256523	-0.127089	-0.155314	1.19452	-0.0630304	0	0	-0.161344	0.0786562	-0.00447749	-0.0882259	-0.347316	0.568949	0.52482	0.773051	0	0	-0.0134682	-0.457799	0.40941	0.724171	1.27974	0	0
1.65	0.396238	1.4324	1.28784	0.615184	1.58447	1.03326	0.265963	0.0677162	-0.102777	0.270091	0.00828752	0	0	0.271794	-0.126116	-0.157722	1.18787	-0.0432853	0	0	-0.167139	0.0754329	-0.000838865	-0.0877005	-0.348932	0.567896	0.524897	0.772343	0	0	-0.0162864	-0.45361	0.403576	0.719916	1.27633	0	0
1.66	0.389859	1.43631	1.29061	0.615043	1.59742	1.0355	0.240224	0.0676122	-0.109383	0.251804	0.00370553	0	0	0.288718	-0.125736	-0.158696	1.17756	-0.0284886	0	0	-0.17085	0.0727028	0.0030047	-0.0881298	-0.35055	0.566019	0.525532	0.771403	0	0	-0.018876	-0.449421	0.39878	0.715567	1.27133	0	0
1.67	0.379098	1.43912	1.29758	0.614895	1.61031	1.03747	0.216	0.066892	-0.117192	0.234488	-0.00169973	0	0	0.306391	-0.125328	-0.160675	1.16291	-0.0177186	0	0	-0.17303	0.0698256	0.00723997	-0.0896741	-0.352498	0.563283	0.52727	0.770841	0	0	-0.0212466	-0.445904	0.396041	0.711551	1.26562	0	0
1.68	0.364832	1.4409	1.30753	0.614737	1.62315	1.03917	0.193445	0.0661739	-0.125101	0.217549	-0.00736002	0	0	0.324267	-0.125335	-0.164108	1.14368	-0.00943457	0	0	-0.173965	0.0668388	0.0119668	-0.0922046	-0.354675	0.559485	0.530309	0.770569	0	0	-0.0237563	-0.442909	0.394227	0.708268	1.25978	0	0
1.69	0.347197	1.44172	1.32035	0.614536	1.63596	1.04063	0.172033	0.0657948	-0.131985	0.198946	-0.0134791	0	0	0.341977	-0.125707	-0.169414	1.11956	-0.00278279	0	0	-0.173845	0.0636543	0.0168798	-0.0952488	-0.35688	0.555006	0.53402	0.770777	0	0	-0.0266718	-0.44006	0.392389	0.705456	1.25357	0	0
1.7	0.326974	1.44204	1.33513	0.614342	1.64872	1.04186	0.15276	0.0651225	-0.137641	0.182499	-0.0192875	0	0	0.35906	-0.126353	-0.177742	1.09046	0.00242889	0	0	-0.173285	0.0601058	0.0220262	-0.0985351	-0.359178	0.550053	0.538635	0.771706	0	0	-0.0299246	-0.4375	0.390301	0.703495	1.24749	0	0
1.71	0.17439	1.43323	1.47943	0.614795	1.66129	1.03968	0.158108	0.0319412	-0.132249	0.175529	-0.0181757	0	0	0.388458	-0.111201	-0.192665	1.06281	0.00911668	0	0	-0.155231	0.0374865	0.0263729	-0.113624	-0.3597	0.534551	0.556254	0.77555	0	0	-0.0432966	-0.445922	0.388648	0.71675	1.23759	0	0
1.72	0.159961	1.43371	1.48652	0.614856	1.67398	1.04054	0.138347	0.031348	-0.138251	0.162645	-0.0205276	0	0	0.402341	-0.11743	-0.21313	1.02558	0.00985865	0	0	-0.155699	0.0340839	0.0326696	-0.116898	-0.361504	0.52739	0.562049	0.779984	0	0	-0.0460428	-0.444999	0.389483	0.71594	1.2318	0	0
1.73	0.153288	1.43837	1.48404	0.615023	1.68685	1.04155	0.113769	0.031919	-0.143447	0.149478	-0.0252469	0	0	0.410083	-0.132988	-0.255664	0.98665	0.00350507	0	0	-0.162112	0.0311883	0.0411886	-0.120849	-0.364835	0.518147	0.571903	0.784669	0	0	-0.0479052	-0.444278	0.390159	0.716824	1.22774	0	0
1.74	0.152476	1.44791	1.47426	0.615214	1.70002	1.0428	0.0830419	0.0328425	-0.147566	0.13517	-0.0313621	0	0	0.409292	-0.157751	-0.32358	0.946027	-0.012714	0	0	-0.174911	0.0284422	0.0515257	-0.125416	-0.369203	0.506649	0.584795	0.789609	0	0	-0.0488343	-0.443494	0.390623	0.718863	1.2253	0	0
1.75	0.13901	1.448	1.48308	0.6149	1.71249	1.04325	0.0640693	0.0319126	-0.148464	0.122803	-0.0358112	0	0	0.418397	-0.151864	-0.324502	0.890931	-0.0192432	0	0	-0.177126	0.0251725	0.0547424	-0.126442	-0.370426	0.50054	0.58986	0.792569	0	0	-0.049811	-0.442482	0.390605	0.71751	1.22499	0	0
1.76	0.122287	1.44515	1.49636	0.614584	1.72472	1.04334	0.0486495	0.0306512	-0.147613	0.110927	-0.0409498	0	0	0.42783	-0.137318	-0.305816	0.824768	-0.0257933	0	0	-0.176438	0.0213925	0.0562616	-0.125887	-0.370375	0.496467	0.592236	0.795271	0	0	-0.0505268	-0.441944	0.390671	0.71528	1.22547	0	0
1.77	0.100771	1.44196	1.51502	0.614235	1.73699	1.04327	0.033649	0.0283897	-0.148921	0.0991875	-0.046423	0	0	0.432663	-0.120587	-0.285243	0.746936	-0.0344415	0	0	-0.175323	0.0166477	0.0566811	-0.124045	-0.369276	0.49417	0.592399	0.797304	0	0	-0.051177	-0.442126	0.391291	0.712781	1.22638	0	0
1.78	0.0753577	1.44178	1.53707	0.613825	1.7496	1.04321	0.0140339	0.0241508	-0.152064	0.0874672	-0.0529912	0	0	0.430298	-0.108734	-0.28252	0.662748	-0.05094	0	0	-0.177346	0.0109568	0.0571604	-0.121701	-0.368081	0.492478	0.592209	0.797919	0	0	-0.0518608	-0.443573	0.39355	0.711366	1.22754	0	0
1.79	0.0582055	1.44336	1.54991	0.613373	1.76244	1.04305	-0.00427708	0.0218572	-0.157903	0.078679	-0.0576012	0	0	0.425063	-0.101131	-0.291506	0.578829	-0.0710615	0	0	-0.181573	0.00653539	0.0592422	-0.11943	-0.368086	0.491921	0.592524	0.796747	0	0	-0.0517314	-0.445037	0.397649	0.709962	1.22846	0	0
1.8	0.0384346	1.44478	1.56512	0.612849	1.77545	1.04229	-0.0242459	0.0177977	-0.163605	0.0700991	-0.0610104	0	0	0.42203	-0.0940118	-0.305717	0.502549	-0.0907889	0	0	-0.185046	0.0019268	0.0620922	-0.119946	-0.369424	0.489911	0.5967	0.794577	0	0	-0.052369	-0.447864	0.403402	0.710841	1.22904	0	0
1.81	0.0312624	1.44527	1.56696	0.61231	1.78858	1.04111	-0.0425461	0.0155655	-0.166626	0.0619655	-0.0632017	0	0	0.422013	-0.0891381	-0.324137	0.434446	-0.1074	0	0	-0.187141	-0.000862749	0.0664011	-0.12179	-0.371774	0.487341	0.601992	0.793155	0	0	-0.053271	-0.450711	0.410035	0.712012	1.22956	0	0
1.82	0.0350349	1.4435	1.55781	0.611787	1.80176	1.03939	-0.0584675	0.0145448	-0.166567	0.0540493	-0.0641385	0	0	0.427161	-0.0868275	-0.348862	0.376621	-0.117666	0	0	-0.186138	-0.00188276	0.0712067	-0.12479	-0.37446	0.484226	0.607454	0.792558	0	0	-0.0548917	-0.453545	0.416634	0.712937	1.23101	0	0
1.83	0.0410743	1.44078	1.54599	0.611158	1.81504	1.03729	-0.0726394	0.0135	-0.165767	0.0475127	-0.064671	0	0	0.43511	-0.085144	-0.374476	0.328357	-0.122616	0	0	-0.183802	-0.00212886	0.0771657	-0.129229	-0.37769	0.479864	0.613539	0.792116	0	0	-0.0563635	-0.455763	0.423227	0.713144	1.23215	0	0
1.84	0.0424396	1.43378	1.54163	0.610287	1.82814	1.03481	-0.0802693	0.0116911	-0.165443	0.0446963	-0.0642427	0	0	0.435675	-0.0671709	-0.346249	0.245104	-0.126631	0	0	-0.176792	-0.00294177	0.0805739	-0.132897	-0.378908	0.475775	0.616168	0.792284	0	0	-0.0572491	-0.457823	0.430076	0.711036	1.23133	0	0
1.85	0.0483842	1.42774	1.5332	0.609293	1.84158	1.03211	-0.0879424	0.0102819	-0.167376	0.0449576	-0.062815	0	0	0.434158	-0.0508987	-0.317647	0.165518	-0.130141	0	0	-0.169963	-0.0029452	0.0829138	-0.136815	-0.380283	0.472281	0.618716	0.792453	0	0	-0.0599173	-0.459957	0.434645	0.709627	1.2295	0	0
1.86	0.0588606	1.42375	1.51963	0.608321	1.85533	1.02936	-0.0976938	0.0094616	-0.169443	0.0457	-0.0613048	0	0	0.435897	-0.0413967	-0.308521	0.108568	-0.130486	0	0	-0.165006	-0.00221882	0.0856525	-0.141441	-0.382025	0.467843	0.622437	0.791379	0	0	-0.0636242	-0.461874	0.436486	0.708893	1.22664	0	0
1.87	0.0680783	1.41984	1.50699	0.607358	1.86928	1.02654	-0.106517	0.00835607	-0.172963	0.0486708	-0.0596212	0	0	0.437963	-0.0328459	-0.300353	0.0587417	-0.131084	0	0	-0.159802	-0.00184627	0.0883886	-0.145579	-0.383419	0.464595	0.624909	0.791427	0	0	-0.067988	-0.463305	0.436235	0.707233	1.22412	0	0
1.88	0.0758149	1.41715	1.49633	0.606376	1.88349	1.02381	-0.116377	0.0068738	-0.176424	0.0536067	-0.0585416	0	0	0.438999	-0.0245813	-0.293638	0.0158632	-0.132611	0	0	-0.155626	-0.00205103	0.0902369	-0.148771	-0.384066	0.462649	0.625718	0.792298	0	0	-0.0729875	-0.46449	0.434074	0.7045	1.22395	0	0
1.89	0.0842903	1.41567	1.4859	0.605339	1.89788	1.02115	-0.127055	0.00526666	-0.17829	0.0595977	-0.0581909	0	0	0.441742	-0.017843	-0.294971	0	-0.131179	0	0	-0.153051	-0.00243275	0.091337	-0.151357	-0.384198	0.461479	0.625568	0.79235	0	0	-0.077921	-0.465444	0.430207	0.70148	1.22298	0	0
1.9	0.0931731	1.41483	1.47607	0.604145	1.91241	1.01866	-0.136659	0.00361139	-0.180763	0.0693213	-0.0590117	0	0	0.445279	-0.0116422	-0.297638	0	-0.123108	0	0	-0.150635	-0.00246706	0.0907616	-0.15357	-0.383643	0.46019	0.624398	0.791765	0	0	-0.0832242	-0.464853	0.422836	0.696439	1.22088	0	0
1.91	0.101234	1.41491	1.46741	0.602898	1.92712	1.0164	-0.146265	0.00162981	-0.179966	0.0796278	-0.0602918	0	0	0.447791	-0.00553339	-0.298893	0	-0.114168	0	0	-0.149585	-0.002856	0.0901257	-0.155139	-0.382666	0.459734	0.622091	0.791251	0	0	-0.0876079	-0.464558	0.416212	0.69093	1.21869	0	0
1.92	0.109546	1.41648	1.45919	0.601647	1.94214	1.01444	-0.155587	-0.00102387	-0.178924	0.0947766	-0.0625794	0	0	0.44848	0.000259854	-0.299094	0	-0.105056	0	0	-0.149369	-0.00343224	0.0886705	-0.156158	-0.380767	0.460023	0.617889	0.79112	0	0	-0.0921211	-0.463977	0.408392	0.684352	1.21497	0	0
1.93	0.117449	1.41948	1.45153	0.600465	1.9575	1.01271	-0.165629	-0.00411747	-0.175967	0.112313	-0.0663789	0	0	0.447024	0.00526259	-0.29798	0	-0.0994981	0	0	-0.149734	-0.00439505	0.0866513	-0.156779	-0.377656	0.460573	0.611882	0.790598	0	0	-0.0968386	-0.463465	0.400951	0.676787	1.21187	0	0
1.94	0.245743	1.44375	1.3326	0.598208	1.97421	1.01475	-0.219718	0.0198223	-0.190601	0.113821	-0.0976264	0	0	0.41921	-0.00143642	-0.299517	0.0143208	-0.0964363	0	0	-0.178849	0.0094978	0.0766741	-0.146304	-0.376004	0.471317	0.596752	0.786677	0	0	-0.0952659	-0.455682	0.389187	0.660964	1.21394	0	0
1.95	0.257571	1.4484	1.31991	0.597216	1.99038	1.01314	-0.228454	0.0153904	-0.183697	0.139362	-0.110242	0	0	0.418803	-0.00131107	-0.312389	0.0542001	-0.0966463	0	0	-0.178583	0.00748551	0.0747203	-0.146937	-0.371456	0.474587	0.58763	0.78556	0	0	-0.102178	-0.455704	0.381199	0.653393	1.21557	0	0
1.96	0.269436	1.45372	1.30629	0.596195	2.00691	1.01164	-0.234911	0.00938364	-0.171689	0.169844	-0.124175	0	0	0.41584	-0.00105294	-0.322329	0.0920854	-0.104919	0	0	-0.177576	0.00489673	0.072023	-0.146644	-0.365918	0.479383	0.575614	0.78629	0	0	-0.110963	-0.456197	0.373325	0.646252	1.2147	0	0
1.97	0.271374	1.45789	1.30277	0.595025	2.02356	1.01021	-0.236631	0.00107533	-0.156031	0.207447	-0.141217	0	0	0.413244	0.00128602	-0.326568	0.121088	-0.13126	0	0	-0.174061	0.00119523	0.0676769	-0.145604	-0.359282	0.485329	0.561253	0.787075	0	0	-0.120655	-0.456512	0.365314	0.638102	1.2118	0	0
